<?xml version="1.0" encoding="UTF-8" standalone="no"?>
<!DOCTYPE svg PUBLIC "-//W3C//DTD SVG 1.1//EN"
 "http://www.w3.org/Graphics/SVG/1.1/DTD/svg11.dtd">
<!-- Generated by graphviz version 2.43.0 (0)
 -->
<!-- Title: %3 Pages: 1 -->
<svg width="7108pt" height="244pt"
 viewBox="0.00 0.00 7108.00 244.00" xmlns="http://www.w3.org/2000/svg" xmlns:xlink="http://www.w3.org/1999/xlink">
<g id="graph0" class="graph" transform="scale(1 1) rotate(0) translate(4 240)">
<title>%3</title>
<polygon fill="white" stroke="transparent" points="-4,4 -4,-240 7104,-240 7104,4 -4,4"/>
<!-- 1 -->
<g id="node1" class="node">
<title>1</title>
<polygon fill="#0ba849" stroke="#0ba849" points="522.5,-236 466.5,-236 466.5,-184 522.5,-184 522.5,-236"/>
<text text-anchor="middle" x="494.5" y="-224" font-family="Arial" font-size="10.00" fill="#ffffff">main</text>
<text text-anchor="middle" x="494.5" y="-213" font-family="Arial" font-size="10.00" fill="#ffffff">40.14%</text>
<text text-anchor="middle" x="494.5" y="-202" font-family="Arial" font-size="10.00" fill="#ffffff">(13.98%)</text>
<text text-anchor="middle" x="494.5" y="-191" font-family="Arial" font-size="10.00" fill="#ffffff">40010×</text>
</g>
<!-- 1&#45;&gt;1 -->
<g id="edge1" class="edge">
<title>1&#45;&gt;1</title>
<path fill="none" stroke="#0ba849" stroke-width="1.61" d="M522.73,-218.15C527.89,-217.12 531.5,-214.4 531.5,-210 531.5,-207.66 530.48,-205.8 528.75,-204.41"/>
<polygon fill="#0ba849" stroke="#0ba849" stroke-width="1.61" points="529.39,-202.29 522.73,-201.85 527.66,-206.34 529.39,-202.29"/>
<text text-anchor="middle" x="548" y="-207.5" font-family="Arial" font-size="10.00" fill="#0ba849">40010×</text>
</g>
<!-- 2 -->
<g id="node2" class="node">
<title>2</title>
<polygon fill="#0c698b" stroke="#0c698b" points="1560,-144 1151,-144 1151,-92 1560,-92 1560,-144"/>
<text text-anchor="middle" x="1355.5" y="-132" font-family="Arial" font-size="10.00" fill="#ffffff">Agent*&amp; std::vector&lt;Agent*, std::allocator&lt;Agent*&gt; &gt;::emplace_back&lt;Agent*&gt;(Agent*&amp;&amp;)</text>
<text text-anchor="middle" x="1355.5" y="-121" font-family="Arial" font-size="10.00" fill="#ffffff">18.31%</text>
<text text-anchor="middle" x="1355.5" y="-110" font-family="Arial" font-size="10.00" fill="#ffffff">(18.31%)</text>
<text text-anchor="middle" x="1355.5" y="-99" font-family="Arial" font-size="10.00" fill="#ffffff">115315138×</text>
</g>
<!-- 1&#45;&gt;2 -->
<g id="edge2" class="edge">
<title>1&#45;&gt;2</title>
<path fill="none" stroke="#0c5686" stroke-width="0.61" d="M522.53,-199.09C538.69,-193.78 559.51,-187.6 578.5,-184 768.83,-147.94 989.18,-131.88 1146.5,-124.74"/>
<polygon fill="#0c5686" stroke="#0c5686" stroke-width="0.61" points="1146.83,-126.09 1150.67,-124.55 1146.71,-123.36 1146.83,-126.09"/>
<text text-anchor="middle" x="794" y="-167" font-family="Arial" font-size="10.00" fill="#0c5686">15.15%</text>
<text text-anchor="middle" x="794" y="-156" font-family="Arial" font-size="10.00" fill="#0c5686">95414673×</text>
</g>
<!-- 5 -->
<g id="node3" class="node">
<title>5</title>
<polygon fill="#0d297b" stroke="#0d297b" points="365,-144 0,-144 0,-92 365,-92 365,-144"/>
<text text-anchor="middle" x="182.5" y="-132" font-family="Arial" font-size="10.00" fill="#ffffff">std::vector&lt;Pheromone, std::allocator&lt;Pheromone&gt; &gt;::operator[](unsigned long)</text>
<text text-anchor="middle" x="182.5" y="-121" font-family="Arial" font-size="10.00" fill="#ffffff">6.51%</text>
<text text-anchor="middle" x="182.5" y="-110" font-family="Arial" font-size="10.00" fill="#ffffff">(6.51%)</text>
<text text-anchor="middle" x="182.5" y="-99" font-family="Arial" font-size="10.00" fill="#ffffff">191225386×</text>
</g>
<!-- 1&#45;&gt;5 -->
<g id="edge3" class="edge">
<title>1&#45;&gt;5</title>
<path fill="none" stroke="#0d297b" stroke-width="0.5" d="M466.26,-200.85C423.01,-188.38 338.48,-163.99 272.88,-145.07"/>
<polygon fill="#0d297b" stroke="#0d297b" stroke-width="0.5" points="273.08,-143.85 269.37,-144.06 272.4,-146.21 273.08,-143.85"/>
<text text-anchor="middle" x="403.5" y="-167" font-family="Arial" font-size="10.00" fill="#0d297b">6.50%</text>
<text text-anchor="middle" x="403.5" y="-156" font-family="Arial" font-size="10.00" fill="#0d297b">191169315×</text>
</g>
<!-- 14 -->
<g id="node4" class="node">
<title>14</title>
<polygon fill="#0d1976" stroke="#0d1976" points="687,-144 374,-144 374,-92 687,-92 687,-144"/>
<text text-anchor="middle" x="530.5" y="-132" font-family="Arial" font-size="10.00" fill="#ffffff">std::vector&lt;Agent*, std::allocator&lt;Agent*&gt; &gt;::push_back(Agent*&amp;&amp;)</text>
<text text-anchor="middle" x="530.5" y="-121" font-family="Arial" font-size="10.00" fill="#ffffff">2.89%</text>
<text text-anchor="middle" x="530.5" y="-110" font-family="Arial" font-size="10.00" fill="#ffffff">(2.89%)</text>
<text text-anchor="middle" x="530.5" y="-99" font-family="Arial" font-size="10.00" fill="#ffffff">124530628×</text>
</g>
<!-- 1&#45;&gt;14 -->
<g id="edge4" class="edge">
<title>1&#45;&gt;14</title>
<path fill="none" stroke="#0d1976" stroke-width="0.5" d="M504.53,-183.93C509.05,-172.61 514.42,-159.19 519.1,-147.5"/>
<polygon fill="#0d1976" stroke="#0d1976" stroke-width="0.5" points="520.24,-147.95 520.4,-144.25 517.96,-147.04 520.24,-147.95"/>
<text text-anchor="middle" x="544.5" y="-167" font-family="Arial" font-size="10.00" fill="#0d1976">2.89%</text>
<text text-anchor="middle" x="544.5" y="-156" font-family="Arial" font-size="10.00" fill="#0d1976">124474557×</text>
</g>
<!-- 17 -->
<g id="node5" class="node">
<title>17</title>
<polygon fill="#0d1676" stroke="#0d1676" points="2078.5,-144 1746.5,-144 1746.5,-92 2078.5,-92 2078.5,-144"/>
<text text-anchor="middle" x="1912.5" y="-132" font-family="Arial" font-size="10.00" fill="#ffffff">Agent*&amp;&amp; std::forward&lt;Agent*&gt;(std::remove_reference&lt;Agent*&gt;::type&amp;)</text>
<text text-anchor="middle" x="1912.5" y="-121" font-family="Arial" font-size="10.00" fill="#ffffff">2.17%</text>
<text text-anchor="middle" x="1912.5" y="-110" font-family="Arial" font-size="10.00" fill="#ffffff">(2.17%)</text>
<text text-anchor="middle" x="1912.5" y="-99" font-family="Arial" font-size="10.00" fill="#ffffff">48313268×</text>
</g>
<!-- 1&#45;&gt;17 -->
<g id="edge5" class="edge">
<title>1&#45;&gt;17</title>
<path fill="none" stroke="#0d1274" stroke-width="0.5" d="M522.82,-198.41C538.9,-192.95 559.54,-186.85 578.5,-184 687.83,-167.57 1463.47,-185.84 1573.5,-175 1625.72,-169.85 1637.78,-161.84 1689.5,-153 1706.78,-150.04 1724.84,-147.08 1742.87,-144.21"/>
<polygon fill="#0d1274" stroke="#0d1274" stroke-width="0.5" points="1743.21,-145.39 1746.47,-143.64 1742.82,-142.98 1743.21,-145.39"/>
<text text-anchor="middle" x="1714" y="-167" font-family="Arial" font-size="10.00" fill="#0d1274">1.29%</text>
<text text-anchor="middle" x="1714" y="-156" font-family="Arial" font-size="10.00" fill="#0d1274">28719273×</text>
</g>
<!-- 3 -->
<g id="node6" class="node">
<title>3</title>
<polygon fill="#0c5185" stroke="#0c5185" points="3943.5,-230.5 3635.5,-230.5 3635.5,-189.5 3943.5,-189.5 3943.5,-230.5"/>
<text text-anchor="middle" x="3789.5" y="-218.5" font-family="Arial" font-size="10.00" fill="#ffffff">std::vector&lt;Pheromone, std::allocator&lt;Pheromone&gt; &gt;::size() const</text>
<text text-anchor="middle" x="3789.5" y="-207.5" font-family="Arial" font-size="10.00" fill="#ffffff">14.22%</text>
<text text-anchor="middle" x="3789.5" y="-196.5" font-family="Arial" font-size="10.00" fill="#ffffff">(14.22%)</text>
</g>
<!-- 4 -->
<g id="node7" class="node">
<title>4</title>
<polygon fill="#0d357e" stroke="#0d357e" points="4764.5,-230.5 3952.5,-230.5 3952.5,-189.5 4764.5,-189.5 4764.5,-230.5"/>
<text text-anchor="middle" x="4358.5" y="-218.5" font-family="Arial" font-size="10.00" fill="#ffffff">isRegionFreeOfTerrain(std::vector&lt;std::vector&lt;Pheromone, std::allocator&lt;Pheromone&gt; &gt;, std::allocator&lt;std::vector&lt;Pheromone, std::allocator&lt;Pheromone&gt; &gt; &gt; &gt; const&amp;, int, int, int)</text>
<text text-anchor="middle" x="4358.5" y="-207.5" font-family="Arial" font-size="10.00" fill="#ffffff">8.79%</text>
<text text-anchor="middle" x="4358.5" y="-196.5" font-family="Arial" font-size="10.00" fill="#ffffff">(4.82%)</text>
</g>
<!-- 10 -->
<g id="node8" class="node">
<title>10</title>
<polygon fill="#0d277a" stroke="#0d277a" points="5240,-144 4821,-144 4821,-92 5240,-92 5240,-144"/>
<text text-anchor="middle" x="5030.5" y="-132" font-family="Arial" font-size="10.00" fill="#ffffff">sf::Vector2&lt;float&gt; sf::operator+&lt;float&gt;(sf::Vector2&lt;float&gt; const&amp;, sf::Vector2&lt;float&gt; const&amp;)</text>
<text text-anchor="middle" x="5030.5" y="-121" font-family="Arial" font-size="10.00" fill="#ffffff">6.02%</text>
<text text-anchor="middle" x="5030.5" y="-110" font-family="Arial" font-size="10.00" fill="#ffffff">(6.02%)</text>
<text text-anchor="middle" x="5030.5" y="-99" font-family="Arial" font-size="10.00" fill="#ffffff">153446957×</text>
</g>
<!-- 4&#45;&gt;10 -->
<g id="edge6" class="edge">
<title>4&#45;&gt;10</title>
<path fill="none" stroke="#0d1977" stroke-width="0.5" d="M4504.31,-189.47C4602.64,-176.3 4733.38,-158.79 4839.93,-144.52"/>
<polygon fill="#0d1977" stroke="#0d1977" stroke-width="0.5" points="4840.4,-145.7 4843.71,-144.02 4840.08,-143.27 4840.4,-145.7"/>
<text text-anchor="middle" x="4798" y="-167" font-family="Arial" font-size="10.00" fill="#0d1977">3.01%</text>
<text text-anchor="middle" x="4798" y="-156" font-family="Arial" font-size="10.00" fill="#0d1977">76550400×</text>
</g>
<!-- 23 -->
<g id="node9" class="node">
<title>23</title>
<polygon fill="#0d1174" stroke="#0d1174" points="4699.5,-144 4017.5,-144 4017.5,-92 4699.5,-92 4699.5,-144"/>
<text text-anchor="middle" x="4358.5" y="-132" font-family="Arial" font-size="10.00" fill="#ffffff">std::vector&lt;std::vector&lt;Pheromone, std::allocator&lt;Pheromone&gt; &gt;, std::allocator&lt;std::vector&lt;Pheromone, std::allocator&lt;Pheromone&gt; &gt; &gt; &gt;::size() const</text>
<text text-anchor="middle" x="4358.5" y="-121" font-family="Arial" font-size="10.00" fill="#ffffff">0.96%</text>
<text text-anchor="middle" x="4358.5" y="-110" font-family="Arial" font-size="10.00" fill="#ffffff">(0.96%)</text>
<text text-anchor="middle" x="4358.5" y="-99" font-family="Arial" font-size="10.00" fill="#ffffff">76435200×</text>
</g>
<!-- 4&#45;&gt;23 -->
<g id="edge7" class="edge">
<title>4&#45;&gt;23</title>
<path fill="none" stroke="#0d1174" stroke-width="0.5" d="M4358.5,-189.47C4358.5,-177.37 4358.5,-161.61 4358.5,-148.07"/>
<polygon fill="#0d1174" stroke="#0d1174" stroke-width="0.5" points="4359.73,-147.81 4358.5,-144.31 4357.28,-147.81 4359.73,-147.81"/>
<text text-anchor="middle" x="4383" y="-167" font-family="Arial" font-size="10.00" fill="#0d1174">0.96%</text>
<text text-anchor="middle" x="4383" y="-156" font-family="Arial" font-size="10.00" fill="#0d1174">76377600×</text>
</g>
<!-- 6 -->
<g id="node10" class="node">
<title>6</title>
<polygon fill="#0d297b" stroke="#0d297b" points="6024,-230.5 5521,-230.5 5521,-189.5 6024,-189.5 6024,-230.5"/>
<text text-anchor="middle" x="5772.5" y="-218.5" font-family="Arial" font-size="10.00" fill="#ffffff">Agent&amp; std::vector&lt;Agent, std::allocator&lt;Agent&gt; &gt;::emplace_back&lt;float&amp;, float&amp;, float&amp;&gt;(float&amp;, float&amp;, float&amp;)</text>
<text text-anchor="middle" x="5772.5" y="-207.5" font-family="Arial" font-size="10.00" fill="#ffffff">6.34%</text>
<text text-anchor="middle" x="5772.5" y="-196.5" font-family="Arial" font-size="10.00" fill="#ffffff">(0.00%)</text>
</g>
<!-- 7 -->
<g id="node11" class="node">
<title>7</title>
<polygon fill="#0d297b" stroke="#0d297b" points="6130.5,-144 5414.5,-144 5414.5,-92 6130.5,-92 6130.5,-144"/>
<text text-anchor="middle" x="5772.5" y="-132" font-family="Arial" font-size="10.00" fill="#ffffff">Agent::updateGrid(std::vector&lt;std::vector&lt;Pheromone, std::allocator&lt;Pheromone&gt; &gt;, std::allocator&lt;std::vector&lt;Pheromone, std::allocator&lt;Pheromone&gt; &gt; &gt; &gt;&amp;)</text>
<text text-anchor="middle" x="5772.5" y="-121" font-family="Arial" font-size="10.00" fill="#ffffff">6.32%</text>
<text text-anchor="middle" x="5772.5" y="-110" font-family="Arial" font-size="10.00" fill="#ffffff">(0.00%)</text>
<text text-anchor="middle" x="5772.5" y="-99" font-family="Arial" font-size="10.00" fill="#ffffff">57600×</text>
</g>
<!-- 6&#45;&gt;7 -->
<g id="edge8" class="edge">
<title>6&#45;&gt;7</title>
<path fill="none" stroke="#0d297b" stroke-width="0.5" d="M5772.5,-189.47C5772.5,-177.37 5772.5,-161.61 5772.5,-148.07"/>
<polygon fill="#0d297b" stroke="#0d297b" stroke-width="0.5" points="5773.73,-147.81 5772.5,-144.31 5771.28,-147.81 5773.73,-147.81"/>
<text text-anchor="middle" x="5789" y="-167" font-family="Arial" font-size="10.00" fill="#0d297b">6.32%</text>
<text text-anchor="middle" x="5789" y="-156" font-family="Arial" font-size="10.00" fill="#0d297b">57600×</text>
</g>
<!-- 8 -->
<g id="node12" class="node">
<title>8</title>
<polygon fill="#0d287b" stroke="#0d287b" points="6048.5,-52 5496.5,-52 5496.5,0 6048.5,0 6048.5,-52"/>
<text text-anchor="middle" x="5772.5" y="-40" font-family="Arial" font-size="10.00" fill="#ffffff">void std::allocator_traits&lt;std::allocator&lt;Agent*&gt; &gt;::construct&lt;Agent*, Agent*&gt;(std::allocator&lt;Agent*&gt;&amp;, Agent**, Agent*&amp;&amp;)</text>
<text text-anchor="middle" x="5772.5" y="-29" font-family="Arial" font-size="10.00" fill="#ffffff">6.27%</text>
<text text-anchor="middle" x="5772.5" y="-18" font-family="Arial" font-size="10.00" fill="#ffffff">(6.27%)</text>
<text text-anchor="middle" x="5772.5" y="-7" font-family="Arial" font-size="10.00" fill="#ffffff">57600×</text>
</g>
<!-- 7&#45;&gt;8 -->
<g id="edge9" class="edge">
<title>7&#45;&gt;8</title>
<path fill="none" stroke="#0d287b" stroke-width="0.5" d="M5772.5,-91.93C5772.5,-80.71 5772.5,-67.42 5772.5,-55.8"/>
<polygon fill="#0d287b" stroke="#0d287b" stroke-width="0.5" points="5773.73,-55.75 5772.5,-52.25 5771.28,-55.75 5773.73,-55.75"/>
<text text-anchor="middle" x="5789" y="-75" font-family="Arial" font-size="10.00" fill="#0d287b">6.27%</text>
<text text-anchor="middle" x="5789" y="-64" font-family="Arial" font-size="10.00" fill="#0d287b">57600×</text>
</g>
<!-- 9 -->
<g id="node13" class="node">
<title>9</title>
<polygon fill="#0d277b" stroke="#0d277b" points="2897.5,-236 2701.5,-236 2701.5,-184 2897.5,-184 2897.5,-236"/>
<text text-anchor="middle" x="2799.5" y="-224" font-family="Arial" font-size="10.00" fill="#ffffff">_GLOBAL__sub_I__Z14randomGradientii</text>
<text text-anchor="middle" x="2799.5" y="-213" font-family="Arial" font-size="10.00" fill="#ffffff">6.05%</text>
<text text-anchor="middle" x="2799.5" y="-202" font-family="Arial" font-size="10.00" fill="#ffffff">(1.69%)</text>
<text text-anchor="middle" x="2799.5" y="-191" font-family="Arial" font-size="10.00" fill="#ffffff">1×</text>
</g>
<!-- 9&#45;&gt;2 -->
<g id="edge10" class="edge">
<title>9&#45;&gt;2</title>
<path fill="none" stroke="#0d1575" stroke-width="0.5" d="M2701.44,-184.83C2699.78,-184.54 2698.13,-184.26 2696.5,-184 2675.92,-180.67 2343.32,-154.02 2322.5,-153 2064.56,-140.33 1999.55,-154.35 1741.5,-144 1683.88,-141.69 1621.49,-138.12 1564.01,-134.39"/>
<polygon fill="#0d1575" stroke="#0d1575" stroke-width="0.5" points="1563.81,-133.15 1560.23,-134.14 1563.65,-135.59 1563.81,-133.15"/>
<text text-anchor="middle" x="2616" y="-167" font-family="Arial" font-size="10.00" fill="#0d1575">1.91%</text>
<text text-anchor="middle" x="2616" y="-156" font-family="Arial" font-size="10.00" fill="#0d1575">12044137×</text>
</g>
<!-- 9&#45;&gt;17 -->
<g id="edge12" class="edge">
<title>9&#45;&gt;17</title>
<path fill="none" stroke="#0d0f73" stroke-width="0.5" d="M2713.52,-183.97C2705.66,-181.15 2697.89,-178.15 2690.5,-175 2671.83,-167.05 2670.11,-158.21 2650.5,-153 2592.94,-137.7 2173.92,-148.16 2114.5,-144 2103.97,-143.26 2093.15,-142.36 2082.24,-141.33"/>
<polygon fill="#0d0f73" stroke="#0d0f73" stroke-width="0.5" points="2082.14,-140.09 2078.54,-140.98 2081.91,-142.53 2082.14,-140.09"/>
<text text-anchor="middle" x="2715" y="-167" font-family="Arial" font-size="10.00" fill="#0d0f73">0.54%</text>
<text text-anchor="middle" x="2715" y="-156" font-family="Arial" font-size="10.00" fill="#0d0f73">12053278×</text>
</g>
<!-- 9&#45;&gt;9 -->
<g id="edge11" class="edge">
<title>9&#45;&gt;9</title>
<path fill="none" stroke="#0d277b" stroke-width="0.5" d="M2897.68,-215.82C2903.21,-214.41 2906.5,-212.47 2906.5,-210 2906.5,-208.15 2904.65,-206.59 2901.39,-205.34"/>
<polygon fill="#0d277b" stroke="#0d277b" stroke-width="0.5" points="2901.39,-204.05 2897.68,-204.18 2900.66,-206.39 2901.39,-204.05"/>
<text text-anchor="middle" x="2912.5" y="-207.5" font-family="Arial" font-size="10.00" fill="#0d277b">1×</text>
</g>
<!-- 20 -->
<g id="node14" class="node">
<title>20</title>
<polygon fill="#0d1375" stroke="#0d1375" points="3542.5,-144 2970.5,-144 2970.5,-92 3542.5,-92 3542.5,-144"/>
<text text-anchor="middle" x="3256.5" y="-132" font-family="Arial" font-size="10.00" fill="#ffffff">std::_Vector_base&lt;Pheromone, std::allocator&lt;Pheromone&gt; &gt;::_Vector_base(unsigned long, std::allocator&lt;Pheromone&gt; const&amp;)</text>
<text text-anchor="middle" x="3256.5" y="-121" font-family="Arial" font-size="10.00" fill="#ffffff">1.45%</text>
<text text-anchor="middle" x="3256.5" y="-110" font-family="Arial" font-size="10.00" fill="#ffffff">(1.45%)</text>
<text text-anchor="middle" x="3256.5" y="-99" font-family="Arial" font-size="10.00" fill="#ffffff">534944×</text>
</g>
<!-- 9&#45;&gt;20 -->
<g id="edge13" class="edge">
<title>9&#45;&gt;20</title>
<path fill="none" stroke="#0d1074" stroke-width="0.5" d="M2897.54,-189.69C2964.28,-176.55 3053.34,-159.01 3126.06,-144.69"/>
<polygon fill="#0d1074" stroke="#0d1074" stroke-width="0.5" points="3126.31,-145.89 3129.51,-144.01 3125.84,-143.48 3126.31,-145.89"/>
<text text-anchor="middle" x="3100.5" y="-167" font-family="Arial" font-size="10.00" fill="#0d1074">0.71%</text>
<text text-anchor="middle" x="3100.5" y="-156" font-family="Arial" font-size="10.00" fill="#0d1074">261166×</text>
</g>
<!-- 26 -->
<g id="node15" class="node">
<title>26</title>
<polygon fill="#0d1074" stroke="#0d1074" points="2905.5,-144 2119.5,-144 2119.5,-92 2905.5,-92 2905.5,-144"/>
<text text-anchor="middle" x="2512.5" y="-132" font-family="Arial" font-size="10.00" fill="#ffffff">void std::vector&lt;Agent*, std::allocator&lt;Agent*&gt; &gt;::_M_realloc_insert&lt;Agent*&gt;(__gnu_cxx::__normal_iterator&lt;Agent**, std::vector&lt;Agent*, std::allocator&lt;Agent*&gt; &gt; &gt;, Agent*&amp;&amp;)</text>
<text text-anchor="middle" x="2512.5" y="-121" font-family="Arial" font-size="10.00" fill="#ffffff">0.72%</text>
<text text-anchor="middle" x="2512.5" y="-110" font-family="Arial" font-size="10.00" fill="#ffffff">(0.48%)</text>
<text text-anchor="middle" x="2512.5" y="-99" font-family="Arial" font-size="10.00" fill="#ffffff">6072486×</text>
</g>
<!-- 9&#45;&gt;26 -->
<g id="edge14" class="edge">
<title>9&#45;&gt;26</title>
<path fill="none" stroke="#0d1074" stroke-width="0.5" d="M2779.76,-183.8C2769.57,-172.55 2756.19,-160.24 2741.5,-153 2735.72,-150.15 2727.8,-147.49 2718.35,-145"/>
<polygon fill="#0d1074" stroke="#0d1074" stroke-width="0.5" points="2718.5,-143.77 2714.81,-144.09 2717.89,-146.15 2718.5,-143.77"/>
<text text-anchor="middle" x="2791" y="-167" font-family="Arial" font-size="10.00" fill="#0d1074">0.72%</text>
<text text-anchor="middle" x="2791" y="-156" font-family="Arial" font-size="10.00" fill="#0d1074">5760000×</text>
</g>
<!-- 26&#45;&gt;26 -->
<g id="edge22" class="edge">
<title>26&#45;&gt;26</title>
<path fill="none" stroke="#0d1074" stroke-width="0.5" d="M2905.72,-121.31C2911.41,-120.34 2914.5,-119.24 2914.5,-118 2914.5,-117.07 2912.76,-116.22 2909.49,-115.44"/>
<polygon fill="#0d1074" stroke="#0d1074" stroke-width="0.5" points="2909.39,-114.18 2905.72,-114.69 2908.91,-116.58 2909.39,-114.18"/>
<text text-anchor="middle" x="2933.5" y="-115.5" font-family="Arial" font-size="10.00" fill="#0d1074">180962×</text>
</g>
<!-- 11 -->
<g id="node16" class="node">
<title>11</title>
<polygon fill="#0d2078" stroke="#0d2078" points="5511.5,-230.5 4773.5,-230.5 4773.5,-189.5 5511.5,-189.5 5511.5,-230.5"/>
<text text-anchor="middle" x="5142.5" y="-218.5" font-family="Arial" font-size="10.00" fill="#ffffff">std::vector&lt;std::vector&lt;Pheromone, std::allocator&lt;Pheromone&gt; &gt;, std::allocator&lt;std::vector&lt;Pheromone, std::allocator&lt;Pheromone&gt; &gt; &gt; &gt;::operator[](unsigned long)</text>
<text text-anchor="middle" x="5142.5" y="-207.5" font-family="Arial" font-size="10.00" fill="#ffffff">4.45%</text>
<text text-anchor="middle" x="5142.5" y="-196.5" font-family="Arial" font-size="10.00" fill="#ffffff">(1.45%)</text>
</g>
<!-- 11&#45;&gt;10 -->
<g id="edge15" class="edge">
<title>11&#45;&gt;10</title>
<path fill="none" stroke="#0d1977" stroke-width="0.5" d="M5118.2,-189.47C5102.63,-176.96 5082.18,-160.53 5064.95,-146.69"/>
<polygon fill="#0d1977" stroke="#0d1977" stroke-width="0.5" points="5065.49,-145.55 5062,-144.31 5063.96,-147.46 5065.49,-145.55"/>
<text text-anchor="middle" x="5124" y="-167" font-family="Arial" font-size="10.00" fill="#0d1977">3.00%</text>
<text text-anchor="middle" x="5124" y="-156" font-family="Arial" font-size="10.00" fill="#0d1977">76435200×</text>
</g>
<!-- 12 -->
<g id="node17" class="node">
<title>12</title>
<polygon fill="#0d1d78" stroke="#0d1d78" points="2306.5,-230.5 962.5,-230.5 962.5,-189.5 2306.5,-189.5 2306.5,-230.5"/>
<text text-anchor="middle" x="1634.5" y="-218.5" font-family="Arial" font-size="10.00" fill="#ffffff">std::vector&lt;std::vector&lt;Pheromone, std::allocator&lt;Pheromone&gt; &gt;, std::allocator&lt;std::vector&lt;Pheromone, std::allocator&lt;Pheromone&gt; &gt; &gt; &gt;::vector(unsigned long, std::vector&lt;Pheromone, std::allocator&lt;Pheromone&gt; &gt; const&amp;, std::allocator&lt;std::vector&lt;Pheromone, std::allocator&lt;Pheromone&gt; &gt; &gt; const&amp;)</text>
<text text-anchor="middle" x="1634.5" y="-207.5" font-family="Arial" font-size="10.00" fill="#ffffff">3.85%</text>
<text text-anchor="middle" x="1634.5" y="-196.5" font-family="Arial" font-size="10.00" fill="#ffffff">(3.37%)</text>
</g>
<!-- 12&#45;&gt;2 -->
<g id="edge16" class="edge">
<title>12&#45;&gt;2</title>
<path fill="none" stroke="#0d0e73" stroke-width="0.5" d="M1573.96,-189.47C1533.74,-176.5 1480.46,-159.31 1436.59,-145.16"/>
<polygon fill="#0d0e73" stroke="#0d0e73" stroke-width="0.5" points="1436.89,-143.97 1433.18,-144.06 1436.14,-146.3 1436.89,-143.97"/>
<text text-anchor="middle" x="1550" y="-167" font-family="Arial" font-size="10.00" fill="#0d0e73">0.37%</text>
<text text-anchor="middle" x="1550" y="-156" font-family="Arial" font-size="10.00" fill="#0d0e73">2361143×</text>
</g>
<!-- 12&#45;&gt;17 -->
<g id="edge17" class="edge">
<title>12&#45;&gt;17</title>
<path fill="none" stroke="#0d0d73" stroke-width="0.5" d="M1694.82,-189.47C1734.9,-176.5 1787.99,-159.31 1831.7,-145.16"/>
<polygon fill="#0d0d73" stroke="#0d0d73" stroke-width="0.5" points="1832.15,-146.3 1835.1,-144.06 1831.39,-143.97 1832.15,-146.3"/>
<text text-anchor="middle" x="1829" y="-167" font-family="Arial" font-size="10.00" fill="#0d0d73">0.10%</text>
<text text-anchor="middle" x="1829" y="-156" font-family="Arial" font-size="10.00" fill="#0d0d73">2328194×</text>
</g>
<!-- 13 -->
<g id="node18" class="node">
<title>13</title>
<polygon fill="#0d1a77" stroke="#0d1a77" points="6329.5,-230.5 6033.5,-230.5 6033.5,-189.5 6329.5,-189.5 6329.5,-230.5"/>
<text text-anchor="middle" x="6181.5" y="-218.5" font-family="Arial" font-size="10.00" fill="#ffffff">std::vector&lt;Pheromone, std::allocator&lt;Pheromone&gt; &gt;::~vector()</text>
<text text-anchor="middle" x="6181.5" y="-207.5" font-family="Arial" font-size="10.00" fill="#ffffff">3.13%</text>
<text text-anchor="middle" x="6181.5" y="-196.5" font-family="Arial" font-size="10.00" fill="#ffffff">(3.13%)</text>
</g>
<!-- 15 -->
<g id="node19" class="node">
<title>15</title>
<polygon fill="#0d1876" stroke="#0d1876" points="954,-230.5 583,-230.5 583,-189.5 954,-189.5 954,-230.5"/>
<text text-anchor="middle" x="768.5" y="-218.5" font-family="Arial" font-size="10.00" fill="#ffffff">std::allocator&lt;std::vector&lt;Pheromone, std::allocator&lt;Pheromone&gt; &gt; &gt;::allocator()</text>
<text text-anchor="middle" x="768.5" y="-207.5" font-family="Arial" font-size="10.00" fill="#ffffff">2.77%</text>
<text text-anchor="middle" x="768.5" y="-196.5" font-family="Arial" font-size="10.00" fill="#ffffff">(2.41%)</text>
</g>
<!-- 15&#45;&gt;2 -->
<g id="edge18" class="edge">
<title>15&#45;&gt;2</title>
<path fill="none" stroke="#0d0e73" stroke-width="0.5" d="M895.87,-189.47C981.68,-176.32 1095.73,-158.83 1188.76,-144.57"/>
<polygon fill="#0d0e73" stroke="#0d0e73" stroke-width="0.5" points="1189.06,-145.76 1192.34,-144.02 1188.69,-143.34 1189.06,-145.76"/>
<text text-anchor="middle" x="1154" y="-167" font-family="Arial" font-size="10.00" fill="#0d0e73">0.36%</text>
<text text-anchor="middle" x="1154" y="-156" font-family="Arial" font-size="10.00" fill="#0d0e73">2298092×</text>
</g>
<!-- 16 -->
<g id="node20" class="node">
<title>16</title>
<polygon fill="#0d1876" stroke="#0d1876" points="3626,-230.5 3073,-230.5 3073,-189.5 3626,-189.5 3626,-230.5"/>
<text text-anchor="middle" x="3349.5" y="-218.5" font-family="Arial" font-size="10.00" fill="#ffffff">sf::ContextSettings::ContextSettings(unsigned int, unsigned int, unsigned int, unsigned int, unsigned int, unsigned int, bool)</text>
<text text-anchor="middle" x="3349.5" y="-207.5" font-family="Arial" font-size="10.00" fill="#ffffff">2.67%</text>
<text text-anchor="middle" x="3349.5" y="-196.5" font-family="Arial" font-size="10.00" fill="#ffffff">(0.24%)</text>
</g>
<!-- 16&#45;&gt;20 -->
<g id="edge20" class="edge">
<title>16&#45;&gt;20</title>
<path fill="none" stroke="#0d1074" stroke-width="0.5" d="M3329.32,-189.47C3316.5,-177.06 3299.7,-160.8 3285.46,-147.03"/>
<polygon fill="#0d1074" stroke="#0d1074" stroke-width="0.5" points="3286.02,-145.86 3282.65,-144.31 3284.32,-147.62 3286.02,-145.86"/>
<text text-anchor="middle" x="3332.5" y="-167" font-family="Arial" font-size="10.00" fill="#0d1074">0.74%</text>
<text text-anchor="middle" x="3332.5" y="-156" font-family="Arial" font-size="10.00" fill="#0d1074">273778×</text>
</g>
<!-- 19 -->
<g id="node21" class="node">
<title>19</title>
<polygon fill="#0d1475" stroke="#0d1475" points="3913,-144 3552,-144 3552,-92 3913,-92 3913,-144"/>
<text text-anchor="middle" x="3732.5" y="-132" font-family="Arial" font-size="10.00" fill="#ffffff">std::_Vector_base&lt;Pheromone, std::allocator&lt;Pheromone&gt; &gt;::~_Vector_base()</text>
<text text-anchor="middle" x="3732.5" y="-121" font-family="Arial" font-size="10.00" fill="#ffffff">1.69%</text>
<text text-anchor="middle" x="3732.5" y="-110" font-family="Arial" font-size="10.00" fill="#ffffff">(1.69%)</text>
<text text-anchor="middle" x="3732.5" y="-99" font-family="Arial" font-size="10.00" fill="#ffffff">558551×</text>
</g>
<!-- 16&#45;&gt;19 -->
<g id="edge19" class="edge">
<title>16&#45;&gt;19</title>
<path fill="none" stroke="#0d1475" stroke-width="0.5" d="M3432.61,-189.47C3488.15,-176.42 3561.84,-159.1 3622.27,-144.9"/>
<polygon fill="#0d1475" stroke="#0d1475" stroke-width="0.5" points="3622.74,-146.05 3625.86,-144.06 3622.18,-143.67 3622.74,-146.05"/>
<text text-anchor="middle" x="3605.5" y="-167" font-family="Arial" font-size="10.00" fill="#0d1475">1.69%</text>
<text text-anchor="middle" x="3605.5" y="-156" font-family="Arial" font-size="10.00" fill="#0d1475">558550×</text>
</g>
<!-- 18 -->
<g id="node22" class="node">
<title>18</title>
<polygon fill="#0d1575" stroke="#0d1575" points="2692,-230.5 2315,-230.5 2315,-189.5 2692,-189.5 2692,-230.5"/>
<text text-anchor="middle" x="2503.5" y="-218.5" font-family="Arial" font-size="10.00" fill="#ffffff">std::allocator&lt;std::vector&lt;Pheromone, std::allocator&lt;Pheromone&gt; &gt; &gt;::~allocator()</text>
<text text-anchor="middle" x="2503.5" y="-207.5" font-family="Arial" font-size="10.00" fill="#ffffff">2.03%</text>
<text text-anchor="middle" x="2503.5" y="-196.5" font-family="Arial" font-size="10.00" fill="#ffffff">(1.93%)</text>
</g>
<!-- 18&#45;&gt;17 -->
<g id="edge21" class="edge">
<title>18&#45;&gt;17</title>
<path fill="none" stroke="#0d0d73" stroke-width="0.5" d="M2375.26,-189.47C2288.87,-176.32 2174.04,-158.83 2080.38,-144.57"/>
<polygon fill="#0d0d73" stroke="#0d0d73" stroke-width="0.5" points="2080.42,-143.33 2076.78,-144.02 2080.05,-145.75 2080.42,-143.33"/>
<text text-anchor="middle" x="2299" y="-167" font-family="Arial" font-size="10.00" fill="#0d0d73">0.11%</text>
<text text-anchor="middle" x="2299" y="-156" font-family="Arial" font-size="10.00" fill="#0d0d73">2349619×</text>
</g>
<!-- 21 -->
<g id="node23" class="node">
<title>21</title>
<polygon fill="#0d1375" stroke="#0d1375" points="6730.5,-230.5 6338.5,-230.5 6338.5,-189.5 6730.5,-189.5 6730.5,-230.5"/>
<text text-anchor="middle" x="6534.5" y="-218.5" font-family="Arial" font-size="10.00" fill="#ffffff">std::vector&lt;Pheromone, std::allocator&lt;Pheromone&gt; &gt;::operator[](unsigned long) const</text>
<text text-anchor="middle" x="6534.5" y="-207.5" font-family="Arial" font-size="10.00" fill="#ffffff">1.45%</text>
<text text-anchor="middle" x="6534.5" y="-196.5" font-family="Arial" font-size="10.00" fill="#ffffff">(1.45%)</text>
</g>
<!-- 22 -->
<g id="node24" class="node">
<title>22</title>
<polygon fill="#0d1274" stroke="#0d1274" points="6983.5,-230.5 6739.5,-230.5 6739.5,-189.5 6983.5,-189.5 6983.5,-230.5"/>
<text text-anchor="middle" x="6861.5" y="-218.5" font-family="Arial" font-size="10.00" fill="#ffffff">std::vector&lt;Agent*, std::allocator&lt;Agent*&gt; &gt;::clear()</text>
<text text-anchor="middle" x="6861.5" y="-207.5" font-family="Arial" font-size="10.00" fill="#ffffff">1.27%</text>
<text text-anchor="middle" x="6861.5" y="-196.5" font-family="Arial" font-size="10.00" fill="#ffffff">(1.20%)</text>
</g>
<!-- 25 -->
<g id="node25" class="node">
<title>25</title>
<polygon fill="#0d0f73" stroke="#0d0f73" points="7100,-230.5 6993,-230.5 6993,-189.5 7100,-189.5 7100,-230.5"/>
<text text-anchor="middle" x="7046.5" y="-218.5" font-family="Arial" font-size="10.00" fill="#ffffff">lerp(float, float, float)</text>
<text text-anchor="middle" x="7046.5" y="-207.5" font-family="Arial" font-size="10.00" fill="#ffffff">0.54%</text>
<text text-anchor="middle" x="7046.5" y="-196.5" font-family="Arial" font-size="10.00" fill="#ffffff">(0.48%)</text>
</g>
</g>
</svg>
